<?xml version="1.0" standalone="yes"?>

<svg version="1.1" viewBox="0.0 0.0 960.0 720.0" fill="none" stroke="none" stroke-linecap="square" stroke-miterlimit="10" xmlns="http://www.w3.org/2000/svg" xmlns:xlink="http://www.w3.org/1999/xlink"><clipPath id="p.0"><path d="m0 0l960.0 0l0 720.0l-960.0 0l0 -720.0z" clip-rule="nonzero"></path></clipPath><g clip-path="url(#p.0)"><path fill="#000000" fill-opacity="0.0" d="m0 0l960.0 0l0 720.0l-960.0 0z" fill-rule="evenodd"></path><path fill="#000000" fill-opacity="0.0" d="m0 0l960.0 0l0 720.0l-960.0 0z" fill-rule="evenodd"></path><path fill="#000000" d="m369.3278 174.40625l67.734375 0l42.671875 125.328125l42.671844 -125.328125l68.265625 0l-64.53125 172.26562l47.984375 121.0625l107.203125 -294.39062l80.0 0l-154.125 378.65625l-61.875 0l-65.59372 -158.9375l-65.59375 158.9375l-61.875 0l-153.0625 -378.65625l78.9375 0l107.734375 294.39062l46.921875 -121.0625l-63.46875 -172.26562z" fill-rule="nonzero"></path></g></svg>

